<svg xmlns="http://www.w3.org/2000/svg" viewBox="0 0 960 540" role="img" aria-labelledby="title desc">
  <title id="title">ChefSire Daiquiri premium drink artwork</title>
  <desc id="desc">Classic daiquiri coupe with rum, lime, simple syrup, and citrus garnish.</desc>
  <defs>
    <linearGradient id="bg" x1="0" y1="0" x2="1" y2="1"><stop stop-color="#053b49"/><stop offset="1" stop-color="#33bfd0"/></linearGradient>
    <linearGradient id="glass" x1="0" y1="0" x2="1" y2="1"><stop stop-color="#ffffff" stop-opacity=".52"/><stop offset=".5" stop-color="#ffffff" stop-opacity=".15"/><stop offset="1" stop-color="#ffffff" stop-opacity=".36"/></linearGradient>
    <radialGradient id="halo" cx="50%" cy="42%" r="58%"><stop stop-color="#b9f44a" stop-opacity=".55"/><stop offset="1" stop-color="#b9f44a" stop-opacity="0"/></radialGradient>
  </defs>
  <rect width="960" height="540" rx="0" fill="url(#bg)"/>
  <circle cx="480" cy="256" r="280" fill="url(#halo)"/>
  <path d="M70 428c110-74 186-74 296 0s188 74 304 0 162-74 220-26v138H70z" fill="#fff" opacity=".10"/>
  <g opacity=".38" fill="#fff"><circle cx="154" cy="126" r="7"/><circle cx="220" cy="206" r="4"/><circle cx="784" cy="116" r="6"/><circle cx="812" cy="286" r="4"/><circle cx="692" cy="374" r="5"/></g>
  <g filter="none"><path d="M352 158h256l-96 168h-64z" fill="url(#glass)" stroke="#fff" stroke-width="6" opacity=".9"/><path d="M390 190h180l-70 108h-40z" fill="#d9fbf1" opacity=".84"/><path d="M480 326v90" stroke="#fff" stroke-width="10" opacity=".8"/><path d="M420 444h120" stroke="#fff" stroke-width="12" stroke-linecap="round" opacity=".82"/><circle cx="584" cy="184" r="44" fill="#9be642"/><circle cx="584" cy="184" r="27" fill="none" stroke="#fff" stroke-width="5" opacity=".65"/><path d="M584 140v88M540 184h88M552 152l64 64M616 152l-64 64" stroke="#fff" stroke-width="3" opacity=".55"/></g>
  <path d="M290 472h380" stroke="#fff" stroke-opacity=".26" stroke-width="18" stroke-linecap="round"/>
</svg>