<svg xmlns="http://www.w3.org/2000/svg" viewBox="0 0 960 540" role="img" aria-labelledby="title desc">
  <title id="title">ChefSire Mocktails premium drink artwork</title>
  <desc id="desc">Premium mocktail category artwork with layered fruit, botanicals, bubbles, and no-alcohol sparkle.</desc>
  <defs>
    <linearGradient id="bg" x1="0" y1="0" x2="1" y2="1"><stop stop-color="#073b4c"/><stop offset="1" stop-color="#42c5b8"/></linearGradient>
    <linearGradient id="glass" x1="0" y1="0" x2="1" y2="1"><stop stop-color="#ffffff" stop-opacity=".52"/><stop offset=".5" stop-color="#ffffff" stop-opacity=".15"/><stop offset="1" stop-color="#ffffff" stop-opacity=".36"/></linearGradient>
    <radialGradient id="halo" cx="50%" cy="42%" r="58%"><stop stop-color="#ffdf6b" stop-opacity=".55"/><stop offset="1" stop-color="#ffdf6b" stop-opacity="0"/></radialGradient>
  </defs>
  <rect width="960" height="540" rx="0" fill="url(#bg)"/>
  <circle cx="480" cy="256" r="280" fill="url(#halo)"/>
  <path d="M70 428c110-74 186-74 296 0s188 74 304 0 162-74 220-26v138H70z" fill="#fff" opacity=".10"/>
  <g opacity=".38" fill="#fff"><circle cx="154" cy="126" r="7"/><circle cx="220" cy="206" r="4"/><circle cx="784" cy="116" r="6"/><circle cx="812" cy="286" r="4"/><circle cx="692" cy="374" r="5"/></g>
  <g filter="none"><path d="M372 122h216l-20 330H392z" fill="url(#glass)" stroke="#fff" stroke-width="6" opacity=".88"/><path d="M394 248h172l-12 176H406z" fill="#87f5d2" opacity=".86"/><g opacity=".34" fill="#fff"><circle cx="426" cy="182" r="20"/><circle cx="482" cy="166" r="18"/><circle cx="532" cy="205" r="24"/><circle cx="452" cy="236" r="16"/></g><circle cx="575" cy="170" r="34" fill="#ff6f8f"/><circle cx="608" cy="208" r="24" fill="#ffdf6b"/><path d="M548 208c-34-10-48 18-44 48 36 4 58-16 44-48z" fill="#5ce08a"/></g>
  <path d="M290 472h380" stroke="#fff" stroke-opacity=".26" stroke-width="18" stroke-linecap="round"/>
</svg>