<svg xmlns="http://www.w3.org/2000/svg" viewBox="0 0 960 540" role="img" aria-labelledby="title desc">
  <title id="title">ChefSire Old Fashioned premium drink artwork</title>
  <desc id="desc">Rocks glass with amber whiskey, large cube, bitters, orange peel, and cherry.</desc>
  <defs>
    <linearGradient id="bg" x1="0" y1="0" x2="1" y2="1"><stop stop-color="#20100b"/><stop offset="1" stop-color="#8a3f13"/></linearGradient>
    <linearGradient id="glass" x1="0" y1="0" x2="1" y2="1"><stop stop-color="#ffffff" stop-opacity=".52"/><stop offset=".5" stop-color="#ffffff" stop-opacity=".15"/><stop offset="1" stop-color="#ffffff" stop-opacity=".36"/></linearGradient>
    <radialGradient id="halo" cx="50%" cy="42%" r="58%"><stop stop-color="#ffb347" stop-opacity=".55"/><stop offset="1" stop-color="#ffb347" stop-opacity="0"/></radialGradient>
  </defs>
  <rect width="960" height="540" rx="0" fill="url(#bg)"/>
  <circle cx="480" cy="256" r="280" fill="url(#halo)"/>
  <path d="M70 428c110-74 186-74 296 0s188 74 304 0 162-74 220-26v138H70z" fill="#fff" opacity=".10"/>
  <g opacity=".38" fill="#fff"><circle cx="154" cy="126" r="7"/><circle cx="220" cy="206" r="4"/><circle cx="784" cy="116" r="6"/><circle cx="812" cy="286" r="4"/><circle cx="692" cy="374" r="5"/></g>
  <g filter="none"><path d="M350 178h260l-30 274H380z" fill="url(#glass)" stroke="#fff" stroke-width="6" opacity=".88"/><path d="M385 275h190l-14 143H401z" fill="#c46a22" opacity=".88"/><rect x="430" y="220" width="78" height="78" rx="16" fill="#fff" opacity=".28" transform="rotate(-8 469 259)"/><rect x="494" y="245" width="62" height="62" rx="14" fill="#fff" opacity=".18" transform="rotate(10 525 276)"/><circle cx="584" cy="184" r="44" fill="#ff9f2e"/><circle cx="584" cy="184" r="27" fill="none" stroke="#fff" stroke-width="5" opacity=".65"/><path d="M584 140v88M540 184h88M552 152l64 64M616 152l-64 64" stroke="#fff" stroke-width="3" opacity=".55"/></g>
  <path d="M290 472h380" stroke="#fff" stroke-opacity=".26" stroke-width="18" stroke-linecap="round"/>
</svg>